<svg width="1440" height="1948" viewBox="0 0 1440 1948" fill="none" xmlns="http://www.w3.org/2000/svg">
<rect x="0.5" y="0.5" width="1439" height="1947" fill="#C4C4C4" stroke="black"/>
<rect x="0.5" y="0.5" width="1439" height="199" fill="#6BB4DD" stroke="black"/>
<rect x="0.5" y="1848.5" width="1439" height="99" fill="#3C8994" stroke="black"/>
<rect x="150.5" y="1353.5" width="1139" height="494" fill="#F4FBFE" stroke="black"/>
<rect x="150.5" y="200.5" width="1139" height="1152" fill="#F4D279" stroke="black"/>
<rect x="150" y="291" width="88" height="673" fill="#C4C4C4"/>
<rect x="246" y="291" width="88" height="673" fill="#C4C4C4"/>
<rect x="532" y="291" width="88" height="673" fill="#C4C4C4"/>
<rect x="628" y="291" width="88" height="673" fill="#C4C4C4"/>
<rect x="341" y="291" width="88" height="673" fill="#C4C4C4"/>
<rect x="437" y="291" width="88" height="673" fill="#C4C4C4"/>
<rect x="723" y="291" width="88" height="673" fill="#C4C4C4"/>
<rect x="819" y="291" width="88" height="673" fill="#C4C4C4"/>
<rect x="1106" y="291" width="88" height="673" fill="#C4C4C4"/>
<rect x="1201" y="291" width="88" height="673" fill="#C4C4C4"/>
<rect x="915" y="291" width="88" height="673" fill="#C4C4C4"/>
<rect x="1010" y="291" width="88" height="673" fill="#C4C4C4"/>
<rect opacity="0.2" x="150" y="291" width="566" height="673" fill="#287CAB"/>
<rect opacity="0.2" x="724" y="291" width="566" height="673" fill="#287CAB"/>
<rect opacity="0.2" x="1010" y="291" width="280" height="673" fill="#287CAB"/>
<rect opacity="0.2" x="723" y="291" width="280" height="673" fill="#287CAB"/>
<rect opacity="0.2" x="150" y="291" width="184" height="673" fill="#E12F08"/>
</svg>
